<svg xmlns="http://www.w3.org/2000/svg" xmlns:xlink="http://www.w3.org/1999/xlink" width="2000" zoomAndPan="magnify" viewBox="0 0 1500 1499.999933" height="2000" preserveAspectRatio="xMidYMid meet" version="1.0"><defs><clipPath id="a4cfdafd58"><path d="M 0 1.089844 L 1499 1.089844 L 1499 1222.980469 L 0 1222.980469 Z M 0 1.089844 " clip-rule="nonzero"/></clipPath><clipPath id="da7f33b29d"><path d="M 532.757812 351.121094 L 967 351.121094 L 967 872 L 532.757812 872 Z M 532.757812 351.121094 " clip-rule="nonzero"/></clipPath><clipPath id="e3c2774f33"><path d="M 532.757812 351.121094 L 967.453125 351.121094 L 967.453125 872.753906 L 532.757812 872.753906 Z M 532.757812 351.121094 " clip-rule="nonzero"/></clipPath><clipPath id="127f5f8ef7"><path d="M 1 0.121094 L 435.230469 0.121094 L 435.230469 521 L 1 521 Z M 1 0.121094 " clip-rule="nonzero"/></clipPath><clipPath id="7217271e63"><rect x="0" width="436" y="0" height="522"/></clipPath><clipPath id="172986a37e"><path d="M 584 539 L 678 539 L 678 567.285156 L 584 567.285156 Z M 584 539 " clip-rule="nonzero"/></clipPath><clipPath id="7177945fc7"><path d="M 583.640625 538.832031 L 678.480469 538.832031 L 678.480469 567.285156 L 583.640625 567.285156 Z M 583.640625 538.832031 " clip-rule="nonzero"/></clipPath><clipPath id="6a1cb50f91"><path d="M 823 539 L 917 539 L 917 567.285156 L 823 567.285156 Z M 823 539 " clip-rule="nonzero"/></clipPath><clipPath id="772ca68be9"><path d="M 822.574219 538.832031 L 917.414062 538.832031 L 917.414062 567.285156 L 822.574219 567.285156 Z M 822.574219 538.832031 " clip-rule="nonzero"/></clipPath><clipPath id="861ce686c0"><path d="M 706.40625 576 L 793.34375 576 L 793.34375 863 L 706.40625 863 Z M 706.40625 576 " clip-rule="nonzero"/></clipPath><clipPath id="9bd41bbb47"><rect x="0" width="1500" y="0" height="1224"/></clipPath></defs><g transform="matrix(1, 0, 0, 1, 0, 138)"><g clip-path="url(#9bd41bbb47)"><path fill="#ffffff" d="M 1485.421875 1209.894531 L 1330.21875 1113.222656 L 1219.667969 1044.300781 C 1091.625 1146.957031 918.007812 1209.894531 726.898438 1209.894531 C 332.90625 1209.894531 13.488281 942.234375 13.488281 612.101562 C 13.488281 281.902344 332.90625 14.242188 726.898438 14.242188 C 1120.957031 14.242188 1440.375 281.902344 1440.375 612.101562 C 1440.375 735.078125 1396.046875 849.441406 1319.960938 944.472656 L 1388.683594 1054.757812 Z M 1485.421875 1209.894531 " fill-opacity="1" fill-rule="nonzero"/><g clip-path="url(#a4cfdafd58)"><path fill="#000000" d="M 1485.421875 1223.046875 C 1483.054688 1223.046875 1480.621094 1222.390625 1478.449219 1221.074219 L 1220.523438 1060.347656 C 1085.96875 1165.304688 911.039062 1223.046875 726.832031 1223.046875 C 326.265625 1223.046875 0.335938 949.007812 0.335938 612.101562 C 0.335938 275.195312 326.265625 1.089844 726.898438 1.089844 C 1127.535156 1.089844 1453.527344 275.195312 1453.527344 612.101562 C 1453.527344 731.199219 1412.949219 846.285156 1336.003906 945.328125 L 1496.601562 1202.921875 C 1499.824219 1208.117188 1499.101562 1214.828125 1494.761719 1219.167969 C 1492.195312 1221.730469 1488.839844 1223.046875 1485.421875 1223.046875 Z M 726.898438 27.394531 C 340.796875 27.394531 26.644531 289.664062 26.644531 612.101562 C 26.644531 934.476562 340.796875 1196.742188 726.898438 1196.742188 C 908.472656 1196.742188 1080.578125 1138.933594 1211.449219 1034.042969 C 1215.789062 1030.554688 1221.90625 1030.160156 1226.640625 1033.121094 L 1444.320312 1168.726562 L 1308.84375 951.375 C 1305.886719 946.640625 1306.28125 940.527344 1309.765625 936.183594 C 1386.644531 840.171875 1427.285156 728.042969 1427.285156 612.035156 C 1427.21875 289.664062 1113.066406 27.394531 726.898438 27.394531 Z M 726.898438 27.394531 " fill-opacity="1" fill-rule="nonzero"/></g><g clip-path="url(#da7f33b29d)"><path fill="#000000" d="M 738.460938 351.21875 L 760.824219 351.21875 C 761.523438 351.597656 762.261719 351.875 763.039062 352.050781 C 769.339844 352.496094 775.582031 353.359375 781.765625 354.632812 C 787.949219 355.90625 794.023438 357.582031 799.984375 359.664062 C 805.945312 361.742188 811.746094 364.203125 817.378906 367.050781 C 823.015625 369.898438 828.4375 373.105469 833.648438 376.671875 C 836.265625 378.375 838.832031 380.15625 841.339844 382.019531 C 843.847656 383.882812 846.296875 385.824219 848.679688 387.84375 C 851.066406 389.859375 853.386719 391.953125 855.640625 394.117188 C 857.894531 396.28125 860.078125 398.511719 862.191406 400.8125 C 864.304688 403.113281 866.34375 405.480469 868.308594 407.910156 C 870.273438 410.339844 872.160156 412.828125 873.964844 415.375 C 875.773438 417.925781 877.5 420.527344 879.140625 423.183594 C 880.785156 425.839844 882.34375 428.546875 883.816406 431.300781 C 885.289062 434.058594 886.675781 436.855469 887.96875 439.699219 C 889.265625 442.539062 890.472656 445.417969 891.585938 448.335938 C 892.703125 451.253906 893.722656 454.207031 894.652344 457.1875 C 895.582031 460.171875 896.417969 463.179688 897.15625 466.214844 C 897.894531 469.246094 898.539062 472.304688 899.085938 475.378906 C 899.632812 478.453125 900.082031 481.542969 900.433594 484.644531 C 900.785156 487.75 901.039062 490.859375 901.195312 493.980469 C 901.351562 497.101562 901.410156 500.222656 901.367188 503.34375 C 901.425781 504.046875 901.445312 504.75 901.425781 505.453125 C 901.40625 506.15625 901.351562 506.859375 901.257812 507.554688 C 901.164062 508.253906 901.035156 508.945312 900.871094 509.628906 C 900.703125 510.3125 900.5 510.988281 900.261719 511.652344 C 900.023438 512.3125 899.753906 512.960938 899.445312 513.59375 C 899.140625 514.230469 898.800781 514.84375 898.425781 515.441406 C 898.054688 516.042969 897.652344 516.617188 897.21875 517.171875 C 896.785156 517.726562 896.324219 518.257812 895.832031 518.765625 C 895.34375 519.269531 894.828125 519.75 894.285156 520.199219 C 893.746094 520.652344 893.183594 521.074219 892.597656 521.464844 C 892.011719 521.855469 891.40625 522.214844 890.78125 522.542969 C 890.15625 522.871094 889.519531 523.164062 888.863281 523.425781 C 888.207031 523.683594 887.539062 523.90625 886.863281 524.097656 C 886.183594 524.285156 885.496094 524.4375 884.800781 524.554688 C 884.105469 524.667969 883.40625 524.746094 882.703125 524.789062 C 882 524.832031 881.296875 524.835938 880.59375 524.800781 C 872.847656 525.09375 864.996094 525.0625 857.210938 524.800781 C 856.234375 524.84375 855.257812 524.808594 854.285156 524.703125 C 853.3125 524.59375 852.351562 524.410156 851.410156 524.15625 C 850.464844 523.898438 849.542969 523.574219 848.648438 523.175781 C 847.753906 522.78125 846.894531 522.316406 846.070312 521.789062 C 845.246094 521.261719 844.46875 520.671875 843.734375 520.027344 C 843 519.378906 842.320312 518.675781 841.695312 517.925781 C 841.070312 517.171875 840.503906 516.378906 840 515.539062 C 839.496094 514.699219 839.0625 513.828125 838.691406 512.921875 C 837.191406 508.761719 836.425781 504.46875 836.398438 500.046875 C 836.324219 498.339844 836.207031 496.636719 836.035156 494.9375 C 835.863281 493.242188 835.644531 491.546875 835.375 489.863281 C 835.105469 488.175781 834.785156 486.5 834.417969 484.832031 C 834.050781 483.167969 833.632812 481.511719 833.167969 479.871094 C 832.703125 478.226562 832.191406 476.597656 831.628906 474.988281 C 831.066406 473.375 830.460938 471.78125 829.804688 470.203125 C 829.152344 468.625 828.449219 467.070312 827.703125 465.535156 C 826.957031 463.996094 826.167969 462.484375 825.332031 460.996094 C 824.5 459.507812 823.621094 458.042969 822.699219 456.605469 C 821.777344 455.167969 820.816406 453.757812 819.8125 452.375 C 818.808594 450.996094 817.765625 449.644531 816.683594 448.324219 C 815.601562 447.003906 814.480469 445.714844 813.320312 444.460938 C 812.160156 443.207031 810.96875 441.988281 809.738281 440.800781 C 808.507812 439.617188 807.242188 438.46875 805.945312 437.359375 C 804.648438 436.25 803.320312 435.179688 801.957031 434.144531 C 800.597656 433.113281 799.207031 432.121094 797.789062 431.171875 C 796.371094 430.21875 794.925781 429.3125 793.453125 428.445312 C 791.980469 427.578125 790.484375 426.757812 788.964844 425.976562 C 787.441406 425.199219 785.902344 424.464844 784.335938 423.777344 C 782.773438 423.089844 781.191406 422.449219 779.589844 421.851562 C 777.988281 421.257812 776.371094 420.710938 774.738281 420.210938 C 773.105469 419.710938 771.457031 419.257812 769.796875 418.855469 C 768.136719 418.449219 766.46875 418.09375 764.789062 417.789062 C 763.105469 417.484375 761.417969 417.226562 759.722656 417.019531 C 758.027344 416.8125 756.324219 416.65625 754.621094 416.550781 C 752.914062 416.441406 751.210938 416.386719 749.5 416.378906 C 747.792969 416.371094 746.085938 416.414062 744.378906 416.507812 C 742.671875 416.601562 740.972656 416.746094 739.273438 416.9375 C 737.578125 417.128906 735.886719 417.371094 734.203125 417.664062 C 732.519531 417.957031 730.847656 418.296875 729.183594 418.6875 C 727.519531 419.078125 725.871094 419.515625 724.234375 420.003906 C 722.59375 420.492188 720.972656 421.027344 719.367188 421.609375 C 717.382812 422.429688 715.429688 423.320312 713.507812 424.28125 C 711.585938 425.242188 709.699219 426.269531 707.851562 427.363281 C 706 428.457031 704.195312 429.613281 702.425781 430.835938 C 700.660156 432.054688 698.9375 433.339844 697.261719 434.683594 C 695.585938 436.027344 693.960938 437.425781 692.382812 438.886719 C 690.804688 440.34375 689.28125 441.855469 687.8125 443.421875 C 686.34375 444.988281 684.929688 446.605469 683.578125 448.273438 C 682.222656 449.9375 680.925781 451.648438 679.695312 453.410156 C 678.460938 455.167969 677.289062 456.964844 676.183594 458.804688 C 675.078125 460.648438 674.039062 462.523438 673.066406 464.4375 C 672.09375 466.351562 671.1875 468.300781 670.351562 470.277344 C 669.519531 472.257812 668.753906 474.261719 668.0625 476.292969 C 667.367188 478.328125 666.75 480.382812 666.203125 482.457031 C 665.652344 484.535156 665.179688 486.625 664.78125 488.734375 C 664.382812 490.847656 664.058594 492.96875 663.8125 495.101562 C 663.5625 497.234375 663.390625 499.371094 663.292969 501.515625 C 662.78125 522.671875 663.089844 543.859375 663.058594 565.035156 C 663.160156 566.121094 663.34375 567.1875 663.613281 568.238281 L 670.863281 568.238281 C 753.730469 568.238281 836.597656 568.238281 919.464844 568.238281 C 923.691406 568.128906 927.886719 568.453125 932.050781 569.207031 C 933.273438 569.460938 934.484375 569.769531 935.679688 570.128906 C 936.878906 570.488281 938.058594 570.898438 939.21875 571.359375 C 940.378906 571.820312 941.519531 572.332031 942.636719 572.894531 C 943.753906 573.453125 944.84375 574.0625 945.910156 574.714844 C 946.976562 575.371094 948.007812 576.070312 949.011719 576.816406 C 950.015625 577.558594 950.988281 578.34375 951.921875 579.175781 C 952.859375 580.003906 953.757812 580.871094 954.617188 581.777344 C 955.476562 582.683594 956.296875 583.625 957.074219 584.601562 C 957.855469 585.578125 958.589844 586.585938 959.28125 587.628906 C 959.972656 588.667969 960.617188 589.738281 961.214844 590.835938 C 961.8125 591.929688 962.363281 593.050781 962.863281 594.195312 C 963.367188 595.339844 963.816406 596.503906 964.214844 597.6875 C 964.617188 598.871094 964.964844 600.070312 965.261719 601.285156 C 965.558594 602.496094 965.800781 603.722656 965.992188 604.957031 C 966.179688 606.191406 966.316406 607.429688 966.402344 608.679688 C 966.484375 609.925781 966.511719 611.171875 966.484375 612.421875 C 966.558594 662.566406 966.558594 712.710938 966.484375 762.855469 C 966.550781 766.921875 966.394531 770.984375 966.019531 775.035156 C 965.859375 776.683594 965.660156 778.324219 965.421875 779.964844 C 965.1875 781.601562 964.910156 783.234375 964.597656 784.863281 C 964.285156 786.488281 963.933594 788.105469 963.546875 789.714844 C 963.15625 791.324219 962.730469 792.925781 962.269531 794.515625 C 961.808594 796.105469 961.308594 797.683594 960.773438 799.25 C 960.238281 800.816406 959.664062 802.371094 959.054688 803.910156 C 958.449219 805.453125 957.804688 806.976562 957.125 808.488281 C 956.449219 809.996094 955.734375 811.492188 954.984375 812.96875 C 954.238281 814.445312 953.457031 815.90625 952.640625 817.347656 C 951.824219 818.789062 950.976562 820.210938 950.09375 821.613281 C 949.210938 823.015625 948.296875 824.394531 947.351562 825.753906 C 946.40625 827.113281 945.429688 828.449219 944.421875 829.765625 C 943.414062 831.078125 942.375 832.367188 941.304688 833.632812 C 940.238281 834.902344 939.140625 836.140625 938.015625 837.355469 C 936.890625 838.570312 935.738281 839.761719 934.554688 840.921875 C 933.375 842.082031 932.167969 843.21875 930.933594 844.324219 C 929.703125 845.429688 928.441406 846.503906 927.160156 847.554688 C 925.875 848.601562 924.570312 849.617188 923.238281 850.605469 C 921.910156 851.589844 920.554688 852.546875 919.179688 853.46875 C 917.804688 854.394531 916.410156 855.285156 914.992188 856.144531 C 913.578125 857.003906 912.140625 857.832031 910.6875 858.625 C 909.230469 859.417969 907.757812 860.175781 906.269531 860.902344 C 904.78125 861.625 903.273438 862.316406 901.75 862.96875 C 900.230469 863.625 898.691406 864.242188 897.140625 864.828125 C 895.589844 865.410156 894.027344 865.957031 892.453125 866.46875 C 890.875 866.980469 889.289062 867.453125 887.691406 867.890625 C 886.09375 868.328125 884.484375 868.730469 882.867188 869.09375 C 881.25 869.453125 879.625 869.78125 877.996094 870.066406 C 876.363281 870.355469 874.726562 870.605469 873.082031 870.816406 C 871.4375 871.027344 869.792969 871.203125 868.140625 871.335938 C 866.488281 871.472656 864.835938 871.570312 863.179688 871.628906 C 861.523438 871.6875 859.867188 871.707031 858.207031 871.6875 C 785.851562 871.6875 713.480469 871.804688 641.121094 871.554688 C 632.121094 871.527344 623.25 870.464844 614.5 868.359375 C 611.722656 867.714844 608.976562 866.957031 606.261719 866.085938 C 603.546875 865.214844 600.871094 864.234375 598.238281 863.148438 C 595.601562 862.0625 593.015625 860.867188 590.476562 859.570312 C 587.941406 858.273438 585.460938 856.875 583.035156 855.375 C 580.609375 853.875 578.25 852.28125 575.957031 850.589844 C 573.664062 848.898438 571.441406 847.117188 569.292969 845.246094 C 567.140625 843.375 565.070312 841.417969 563.082031 839.378906 C 561.089844 837.339844 559.1875 835.222656 557.367188 833.027344 C 555.550781 830.835938 553.824219 828.570312 552.191406 826.234375 C 550.558594 823.902344 549.019531 821.503906 547.582031 819.046875 C 546.144531 816.585938 544.804688 814.070312 543.570312 811.503906 C 542.335938 808.9375 541.210938 806.324219 540.1875 803.664062 C 539.164062 801.003906 538.253906 798.308594 537.453125 795.574219 C 536.648438 792.839844 535.960938 790.078125 535.382812 787.289062 C 534.804688 784.5 534.339844 781.691406 533.992188 778.863281 C 533.644531 776.035156 533.410156 773.199219 533.289062 770.351562 C 532.4375 717.007812 532.816406 663.636719 533.039062 610.273438 C 533.046875 609.105469 533.101562 607.941406 533.207031 606.78125 C 533.308594 605.617188 533.464844 604.460938 533.664062 603.3125 C 533.867188 602.164062 534.117188 601.023438 534.414062 599.894531 C 534.710938 598.765625 535.054688 597.652344 535.445312 596.554688 C 535.835938 595.453125 536.273438 594.371094 536.757812 593.308594 C 537.238281 592.246094 537.765625 591.203125 538.332031 590.1875 C 538.902344 589.167969 539.515625 588.175781 540.167969 587.207031 C 540.820312 586.238281 541.511719 585.300781 542.246094 584.390625 C 542.976562 583.480469 543.746094 582.605469 544.550781 581.761719 C 545.355469 580.914062 546.195312 580.105469 547.070312 579.332031 C 547.945312 578.554688 548.847656 577.820312 549.785156 577.121094 C 550.71875 576.421875 551.683594 575.765625 552.671875 575.148438 C 553.664062 574.53125 554.679688 573.957031 555.71875 573.421875 C 556.757812 572.890625 557.816406 572.402344 558.898438 571.960938 C 559.976562 571.515625 561.074219 571.117188 562.1875 570.765625 C 563.304688 570.414062 564.429688 570.113281 565.570312 569.855469 C 574.109375 568.632812 582.695312 568.082031 591.320312 568.199219 C 593.421875 568.085938 595.53125 567.9375 597.960938 567.785156 L 597.960938 561.691406 C 597.960938 542.339844 597.894531 523.0625 597.960938 503.75 C 597.972656 501.640625 598.023438 499.535156 598.117188 497.429688 C 598.214844 495.320312 598.355469 493.21875 598.539062 491.117188 C 598.71875 489.015625 598.945312 486.917969 599.214844 484.828125 C 599.484375 482.738281 599.800781 480.652344 600.15625 478.574219 C 600.511719 476.496094 600.910156 474.425781 601.351562 472.363281 C 601.792969 470.300781 602.277344 468.246094 602.804688 466.207031 C 603.332031 464.164062 603.902344 462.132812 604.511719 460.113281 C 605.125 458.097656 605.777344 456.089844 606.46875 454.101562 C 607.164062 452.109375 607.898438 450.132812 608.675781 448.171875 C 609.449219 446.210938 610.265625 444.265625 611.125 442.339844 C 611.980469 440.410156 612.875 438.503906 613.8125 436.613281 C 614.746094 434.722656 615.722656 432.851562 616.734375 431 C 617.746094 429.152344 618.796875 427.324219 619.886719 425.515625 C 620.976562 423.710938 622.101562 421.925781 623.261719 420.167969 C 624.425781 418.40625 625.625 416.671875 626.859375 414.960938 C 628.09375 413.25 629.363281 411.566406 630.667969 409.910156 C 631.972656 408.25 633.308594 406.621094 634.679688 405.015625 C 636.050781 403.414062 637.457031 401.839844 638.894531 400.296875 C 640.332031 398.753906 641.796875 397.238281 643.296875 395.753906 C 644.796875 394.269531 646.328125 392.816406 647.886719 391.398438 C 649.445312 389.976562 651.035156 388.589844 652.652344 387.234375 C 654.269531 385.878906 655.914062 384.558594 657.585938 383.273438 C 659.257812 381.984375 660.957031 380.734375 662.679688 379.515625 C 664.402344 378.300781 666.152344 377.121094 667.925781 375.976562 C 669.699219 374.832031 671.492188 373.722656 673.3125 372.652344 C 675.128906 371.585938 676.96875 370.550781 678.832031 369.558594 C 680.691406 368.5625 682.574219 367.609375 684.472656 366.691406 C 686.375 365.777344 688.292969 364.902344 690.230469 364.0625 C 692.167969 363.226562 694.121094 362.429688 696.09375 361.675781 C 698.0625 360.917969 700.046875 360.203125 702.046875 359.53125 C 704.046875 358.855469 706.058594 358.222656 708.085938 357.632812 C 710.113281 357.042969 712.148438 356.492188 714.199219 355.988281 C 722.183594 354.023438 730.367188 352.785156 738.460938 351.21875 Z M 749.710938 654.988281 C 748.558594 655 747.40625 655.058594 746.261719 655.160156 C 745.113281 655.261719 743.972656 655.410156 742.835938 655.601562 C 741.699219 655.796875 740.574219 656.03125 739.457031 656.3125 C 738.339844 656.59375 737.234375 656.917969 736.144531 657.285156 C 735.050781 657.652344 733.976562 658.0625 732.917969 658.511719 C 731.859375 658.964844 730.816406 659.457031 729.796875 659.992188 C 728.777344 660.523438 727.777344 661.097656 726.804688 661.707031 C 725.828125 662.320312 724.878906 662.96875 723.953125 663.65625 C 723.027344 664.34375 722.132812 665.0625 721.261719 665.820312 C 720.394531 666.578125 719.558594 667.367188 718.753906 668.1875 C 717.945312 669.011719 717.175781 669.863281 716.433594 670.746094 C 715.695312 671.628906 714.992188 672.539062 714.324219 673.476562 C 713.65625 674.414062 713.027344 675.378906 712.4375 676.367188 C 711.84375 677.351562 711.292969 678.363281 710.78125 679.394531 C 710.269531 680.425781 709.796875 681.472656 709.367188 682.542969 C 708.9375 683.609375 708.550781 684.691406 708.203125 685.789062 C 707.882812 686.875 707.605469 687.96875 707.367188 689.074219 C 707.132812 690.179688 706.941406 691.292969 706.792969 692.414062 C 706.644531 693.535156 706.539062 694.664062 706.480469 695.792969 C 706.421875 696.921875 706.40625 698.050781 706.433594 699.179688 C 706.464844 700.3125 706.539062 701.4375 706.65625 702.5625 C 706.773438 703.6875 706.9375 704.804688 707.144531 705.917969 C 707.351562 707.03125 707.597656 708.132812 707.890625 709.226562 C 708.1875 710.316406 708.519531 711.394531 708.898438 712.460938 C 709.277344 713.527344 709.695312 714.578125 710.15625 715.609375 C 710.617188 716.644531 711.117188 717.65625 711.660156 718.648438 C 712.199219 719.644531 712.777344 720.613281 713.394531 721.5625 C 714.011719 722.511719 714.664062 723.433594 715.355469 724.328125 C 716.042969 725.226562 716.765625 726.09375 717.523438 726.933594 C 718.28125 727.773438 719.074219 728.582031 719.894531 729.359375 C 720.714844 730.136719 721.566406 730.882812 722.445312 731.59375 C 723.328125 732.304688 724.234375 732.980469 725.167969 733.621094 C 725.964844 734.253906 726.609375 735.019531 727.097656 735.917969 C 727.589844 736.8125 727.882812 737.769531 727.984375 738.785156 C 728.285156 746.523438 727.984375 754.339844 728.140625 762.128906 C 728.144531 762.84375 728.1875 763.558594 728.261719 764.273438 C 728.332031 764.984375 728.441406 765.695312 728.578125 766.398438 C 728.71875 767.101562 728.890625 767.796875 729.09375 768.484375 C 729.296875 769.171875 729.53125 769.847656 729.796875 770.511719 C 730.0625 771.175781 730.359375 771.828125 730.6875 772.46875 C 731.011719 773.105469 731.367188 773.726562 731.753906 774.332031 C 732.136719 774.9375 732.550781 775.523438 732.988281 776.089844 C 733.425781 776.65625 733.890625 777.203125 734.378906 777.726562 C 734.867188 778.25 735.378906 778.753906 735.917969 779.230469 C 736.453125 779.707031 737.007812 780.15625 737.585938 780.582031 C 738.164062 781.007812 738.757812 781.40625 739.371094 781.773438 C 739.988281 782.144531 740.617188 782.488281 741.261719 782.796875 C 741.910156 783.109375 742.566406 783.390625 743.238281 783.640625 C 743.910156 783.894531 744.59375 784.113281 745.285156 784.300781 C 745.976562 784.488281 746.675781 784.644531 747.382812 784.765625 C 748.089844 784.890625 748.800781 784.980469 749.515625 785.039062 C 750.242188 784.992188 750.960938 784.914062 751.679688 784.804688 C 752.398438 784.691406 753.109375 784.546875 753.8125 784.367188 C 754.519531 784.1875 755.210938 783.976562 755.894531 783.730469 C 756.582031 783.488281 757.25 783.210938 757.910156 782.90625 C 758.570312 782.597656 759.210938 782.261719 759.835938 781.890625 C 760.464844 781.523438 761.070312 781.128906 761.660156 780.703125 C 762.25 780.277344 762.820312 779.828125 763.367188 779.347656 C 763.914062 778.871094 764.4375 778.367188 764.933594 777.839844 C 765.433594 777.3125 765.910156 776.765625 766.355469 776.191406 C 766.804688 775.621094 767.222656 775.027344 767.617188 774.417969 C 768.007812 773.804688 768.371094 773.179688 768.703125 772.53125 C 769.035156 771.886719 769.339844 771.226562 769.609375 770.554688 C 769.878906 769.878906 770.117188 769.195312 770.324219 768.5 C 770.53125 767.804688 770.703125 767.097656 770.84375 766.386719 C 770.984375 765.675781 771.089844 764.957031 771.164062 764.234375 C 771.238281 763.511719 771.273438 762.789062 771.277344 762.0625 C 771.394531 754.320312 771.164062 746.484375 771.425781 738.71875 C 771.496094 737.777344 771.746094 736.886719 772.175781 736.050781 C 772.605469 735.210938 773.179688 734.488281 773.902344 733.878906 C 774.863281 733.242188 775.796875 732.570312 776.703125 731.859375 C 777.609375 731.144531 778.484375 730.398438 779.332031 729.617188 C 780.175781 728.832031 780.992188 728.019531 781.769531 727.171875 C 782.550781 726.324219 783.296875 725.445312 784.003906 724.535156 C 784.714844 723.628906 785.386719 722.691406 786.019531 721.730469 C 786.652344 720.769531 787.246094 719.78125 787.800781 718.773438 C 788.355469 717.761719 788.867188 716.730469 789.335938 715.679688 C 789.808594 714.628906 790.234375 713.558594 790.621094 712.472656 C 791.003906 711.386719 791.34375 710.289062 791.640625 709.175781 C 791.9375 708.0625 792.1875 706.9375 792.390625 705.804688 C 792.597656 704.671875 792.757812 703.53125 792.871094 702.386719 C 792.980469 701.238281 793.050781 700.089844 793.070312 698.9375 C 793.089844 697.785156 793.0625 696.636719 792.992188 695.488281 C 792.917969 694.335938 792.796875 693.191406 792.632812 692.050781 C 792.46875 690.914062 792.257812 689.78125 792 688.65625 C 791.746094 687.535156 791.441406 686.425781 791.097656 685.324219 C 790.382812 683.152344 789.507812 681.050781 788.464844 679.015625 C 787.425781 676.980469 786.234375 675.039062 784.890625 673.1875 C 783.546875 671.339844 782.070312 669.601562 780.457031 667.984375 C 778.84375 666.363281 777.117188 664.875 775.273438 663.523438 C 773.425781 662.171875 771.488281 660.972656 769.457031 659.921875 C 767.429688 658.871094 765.328125 657.984375 763.160156 657.257812 C 760.988281 656.535156 758.777344 655.980469 756.523438 655.601562 C 754.265625 655.21875 751.996094 655.015625 749.710938 654.988281 Z M 749.710938 654.988281 " fill-opacity="1" fill-rule="nonzero"/></g><g clip-path="url(#e3c2774f33)"><g transform="matrix(1, 0, 0, 1, 532, 351)"><g clip-path="url(#7217271e63)"><g clip-path="url(#127f5f8ef7)"><path fill="#000000" d="M 229.53125 0.21875 L 207.167969 0.21875 C 206.464844 0.597656 205.726562 0.875 204.949219 1.050781 C 198.652344 1.496094 192.410156 2.359375 186.226562 3.632812 C 180.039062 4.90625 173.96875 6.582031 168.003906 8.664062 C 162.042969 10.742188 156.246094 13.203125 150.609375 16.050781 C 144.972656 18.898438 139.550781 22.105469 134.34375 25.671875 C 131.722656 27.375 129.15625 29.15625 126.648438 31.019531 C 124.140625 32.882812 121.695312 34.824219 119.308594 36.84375 C 116.921875 38.859375 114.601562 40.953125 112.347656 43.117188 C 110.09375 45.28125 107.910156 47.511719 105.796875 49.8125 C 103.683594 52.113281 101.644531 54.480469 99.679688 56.910156 C 97.714844 59.339844 95.832031 61.828125 94.023438 64.375 C 92.214844 66.925781 90.492188 69.527344 88.847656 72.183594 C 87.203125 74.839844 85.644531 77.546875 84.171875 80.300781 C 82.699219 83.058594 81.316406 85.855469 80.019531 88.699219 C 78.722656 91.539062 77.515625 94.417969 76.402344 97.335938 C 75.289062 100.253906 74.265625 103.207031 73.335938 106.1875 C 72.40625 109.171875 71.574219 112.179688 70.832031 115.214844 C 70.09375 118.246094 69.453125 121.304688 68.90625 124.378906 C 68.359375 127.453125 67.910156 130.542969 67.554688 133.644531 C 67.203125 136.75 66.949219 139.859375 66.792969 142.980469 C 66.636719 146.101562 66.582031 149.222656 66.621094 152.34375 C 66.566406 153.046875 66.546875 153.75 66.5625 154.453125 C 66.582031 155.15625 66.636719 155.859375 66.730469 156.554688 C 66.824219 157.253906 66.953125 157.945312 67.121094 158.628906 C 67.285156 159.3125 67.488281 159.988281 67.726562 160.652344 C 67.964844 161.3125 68.238281 161.960938 68.542969 162.59375 C 68.851562 163.230469 69.191406 163.84375 69.5625 164.441406 C 69.933594 165.042969 70.339844 165.617188 70.773438 166.171875 C 71.207031 166.726562 71.667969 167.257812 72.15625 167.765625 C 72.648438 168.269531 73.164062 168.75 73.703125 169.199219 C 74.246094 169.652344 74.808594 170.074219 75.394531 170.464844 C 75.980469 170.855469 76.585938 171.214844 77.207031 171.542969 C 77.832031 171.871094 78.472656 172.164062 79.125 172.425781 C 79.78125 172.683594 80.449219 172.90625 81.128906 173.097656 C 81.804688 173.285156 82.492188 173.4375 83.1875 173.554688 C 83.882812 173.667969 84.582031 173.746094 85.285156 173.789062 C 85.988281 173.832031 86.695312 173.835938 87.398438 173.800781 C 95.144531 174.09375 102.996094 174.0625 110.777344 173.800781 C 111.757812 173.84375 112.730469 173.808594 113.703125 173.703125 C 114.675781 173.59375 115.636719 173.410156 116.582031 173.15625 C 117.527344 172.898438 118.445312 172.574219 119.339844 172.175781 C 120.234375 171.78125 121.09375 171.316406 121.917969 170.789062 C 122.742188 170.261719 123.523438 169.671875 124.253906 169.027344 C 124.988281 168.378906 125.667969 167.675781 126.292969 166.925781 C 126.921875 166.171875 127.484375 165.378906 127.988281 164.539062 C 128.492188 163.699219 128.929688 162.828125 129.296875 161.921875 C 130.800781 157.761719 131.566406 153.46875 131.59375 149.046875 C 131.664062 147.339844 131.785156 145.636719 131.953125 143.9375 C 132.125 142.242188 132.34375 140.546875 132.613281 138.863281 C 132.882812 137.175781 133.203125 135.5 133.570312 133.832031 C 133.9375 132.167969 134.355469 130.511719 134.820312 128.871094 C 135.285156 127.226562 135.800781 125.597656 136.359375 123.988281 C 136.921875 122.375 137.53125 120.78125 138.183594 119.203125 C 138.839844 117.625 139.539062 116.070312 140.285156 114.535156 C 141.03125 112.996094 141.820312 111.484375 142.65625 109.996094 C 143.492188 108.507812 144.371094 107.042969 145.289062 105.605469 C 146.210938 104.167969 147.171875 102.757812 148.175781 101.375 C 149.179688 99.996094 150.222656 98.644531 151.308594 97.324219 C 152.390625 96.003906 153.511719 94.714844 154.667969 93.460938 C 155.828125 92.207031 157.023438 90.988281 158.253906 89.800781 C 159.484375 88.617188 160.746094 87.46875 162.042969 86.359375 C 163.34375 85.25 164.671875 84.179688 166.03125 83.144531 C 167.390625 82.113281 168.78125 81.121094 170.199219 80.171875 C 171.621094 79.21875 173.066406 78.3125 174.539062 77.445312 C 176.007812 76.578125 177.503906 75.757812 179.027344 74.976562 C 180.546875 74.199219 182.089844 73.464844 183.652344 72.777344 C 185.214844 72.089844 186.796875 71.449219 188.398438 70.851562 C 190 70.257812 191.617188 69.710938 193.25 69.210938 C 194.882812 68.710938 196.53125 68.257812 198.191406 67.855469 C 199.851562 67.449219 201.523438 67.09375 203.203125 66.789062 C 204.882812 66.484375 206.570312 66.226562 208.265625 66.019531 C 209.964844 65.8125 211.664062 65.65625 213.367188 65.550781 C 215.074219 65.441406 216.78125 65.386719 218.488281 65.378906 C 220.199219 65.371094 221.90625 65.414062 223.609375 65.507812 C 225.316406 65.601562 227.019531 65.746094 228.714844 65.9375 C 230.414062 66.128906 232.101562 66.371094 233.785156 66.664062 C 235.46875 66.957031 237.144531 67.296875 238.804688 67.6875 C 240.46875 68.078125 242.121094 68.515625 243.757812 69.003906 C 245.394531 69.492188 247.015625 70.027344 248.621094 70.609375 C 250.605469 71.429688 252.5625 72.320312 254.484375 73.28125 C 256.402344 74.242188 258.289062 75.269531 260.140625 76.363281 C 261.988281 77.457031 263.796875 78.613281 265.5625 79.835938 C 267.328125 81.054688 269.050781 82.339844 270.726562 83.683594 C 272.402344 85.027344 274.03125 86.425781 275.605469 87.886719 C 277.183594 89.34375 278.707031 90.855469 280.175781 92.421875 C 281.644531 93.988281 283.058594 95.605469 284.414062 97.273438 C 285.769531 98.9375 287.0625 100.648438 288.296875 102.410156 C 289.53125 104.167969 290.699219 105.964844 291.804688 107.804688 C 292.910156 109.648438 293.953125 111.523438 294.925781 113.4375 C 295.898438 115.351562 296.800781 117.300781 297.636719 119.277344 C 298.472656 121.257812 299.234375 123.261719 299.929688 125.292969 C 300.621094 127.328125 301.242188 129.382812 301.789062 131.457031 C 302.335938 133.535156 302.808594 135.625 303.207031 137.734375 C 303.605469 139.847656 303.929688 141.96875 304.179688 144.101562 C 304.425781 146.234375 304.601562 148.371094 304.695312 150.515625 C 305.210938 171.671875 304.898438 192.859375 304.929688 214.035156 C 304.832031 215.121094 304.648438 216.1875 304.378906 217.238281 L 297.125 217.238281 C 214.257812 217.238281 131.394531 217.238281 48.527344 217.238281 C 44.296875 217.128906 40.101562 217.453125 35.941406 218.207031 C 34.714844 218.460938 33.507812 218.769531 32.308594 219.128906 C 31.113281 219.488281 29.933594 219.898438 28.769531 220.359375 C 27.609375 220.820312 26.46875 221.332031 25.351562 221.894531 C 24.234375 222.453125 23.144531 223.0625 22.078125 223.714844 C 21.015625 224.371094 19.980469 225.070312 18.976562 225.816406 C 17.972656 226.558594 17.003906 227.34375 16.066406 228.175781 C 15.132812 229.003906 14.234375 229.871094 13.375 230.777344 C 12.511719 231.683594 11.691406 232.625 10.914062 233.601562 C 10.136719 234.578125 9.402344 235.585938 8.710938 236.628906 C 8.019531 237.667969 7.375 238.738281 6.773438 239.835938 C 6.175781 240.929688 5.625 242.050781 5.125 243.195312 C 4.625 244.339844 4.171875 245.503906 3.773438 246.6875 C 3.371094 247.871094 3.023438 249.070312 2.726562 250.285156 C 2.429688 251.496094 2.1875 252.722656 2 253.957031 C 1.808594 255.191406 1.671875 256.429688 1.589844 257.679688 C 1.507812 258.925781 1.476562 260.171875 1.503906 261.421875 C 1.433594 311.566406 1.433594 361.710938 1.503906 411.855469 C 1.441406 415.921875 1.59375 419.984375 1.96875 424.035156 C 2.128906 425.683594 2.328125 427.324219 2.566406 428.964844 C 2.804688 430.601562 3.078125 432.234375 3.390625 433.863281 C 3.703125 435.488281 4.054688 437.105469 4.445312 438.714844 C 4.832031 440.324219 5.257812 441.925781 5.71875 443.515625 C 6.183594 445.105469 6.679688 446.683594 7.21875 448.25 C 7.753906 449.816406 8.324219 451.371094 8.933594 452.910156 C 9.539062 454.453125 10.183594 455.976562 10.863281 457.488281 C 11.542969 458.996094 12.253906 460.492188 13.003906 461.96875 C 13.75 463.445312 14.535156 464.90625 15.347656 466.347656 C 16.164062 467.789062 17.015625 469.210938 17.894531 470.613281 C 18.777344 472.015625 19.691406 473.394531 20.636719 474.753906 C 21.585938 476.113281 22.5625 477.449219 23.570312 478.765625 C 24.578125 480.078125 25.617188 481.367188 26.683594 482.632812 C 27.75 483.902344 28.847656 485.140625 29.972656 486.355469 C 31.097656 487.570312 32.253906 488.761719 33.433594 489.921875 C 34.613281 491.082031 35.820312 492.21875 37.054688 493.324219 C 38.289062 494.429688 39.546875 495.503906 40.828125 496.554688 C 42.113281 497.601562 43.421875 498.617188 44.75 499.605469 C 46.082031 500.589844 47.433594 501.546875 48.808594 502.46875 C 50.183594 503.394531 51.578125 504.285156 52.996094 505.144531 C 54.414062 506.003906 55.847656 506.832031 57.304688 507.625 C 58.757812 508.417969 60.230469 509.175781 61.71875 509.902344 C 63.210938 510.625 64.714844 511.316406 66.238281 511.96875 C 67.761719 512.625 69.296875 513.242188 70.847656 513.828125 C 72.398438 514.410156 73.960938 514.957031 75.539062 515.46875 C 77.113281 515.980469 78.699219 516.453125 80.300781 516.890625 C 81.898438 517.328125 83.503906 517.730469 85.121094 518.09375 C 86.738281 518.453125 88.363281 518.78125 89.996094 519.066406 C 91.625 519.355469 93.265625 519.605469 94.90625 519.816406 C 96.550781 520.027344 98.199219 520.203125 99.851562 520.335938 C 101.5 520.472656 103.15625 520.570312 104.8125 520.628906 C 106.46875 520.6875 108.125 520.707031 109.78125 520.6875 C 182.140625 520.6875 254.507812 520.804688 326.867188 520.554688 C 335.867188 520.527344 344.742188 519.464844 353.492188 517.359375 C 356.269531 516.714844 359.011719 515.957031 361.726562 515.085938 C 364.441406 514.214844 367.117188 513.234375 369.753906 512.148438 C 372.386719 511.0625 374.972656 509.867188 377.511719 508.570312 C 380.050781 507.273438 382.53125 505.875 384.953125 504.375 C 387.378906 502.875 389.738281 501.28125 392.03125 499.589844 C 394.328125 497.898438 396.550781 496.117188 398.699219 494.246094 C 400.847656 492.375 402.917969 490.417969 404.90625 488.378906 C 406.898438 486.339844 408.800781 484.222656 410.621094 482.027344 C 412.4375 479.835938 414.164062 477.570312 415.800781 475.234375 C 417.433594 472.902344 418.96875 470.503906 420.40625 468.046875 C 421.847656 465.585938 423.183594 463.070312 424.417969 460.503906 C 425.652344 457.9375 426.78125 455.324219 427.800781 452.664062 C 428.824219 450.003906 429.734375 447.308594 430.539062 444.574219 C 431.339844 441.839844 432.03125 439.078125 432.609375 436.289062 C 433.183594 433.5 433.648438 430.691406 433.996094 427.863281 C 434.347656 425.035156 434.582031 422.199219 434.699219 419.351562 C 435.550781 366.007812 435.171875 312.636719 434.949219 259.273438 C 434.945312 258.105469 434.886719 256.941406 434.785156 255.78125 C 434.679688 254.617188 434.527344 253.460938 434.324219 252.3125 C 434.121094 251.164062 433.875 250.023438 433.574219 248.894531 C 433.277344 247.765625 432.933594 246.652344 432.542969 245.554688 C 432.152344 244.453125 431.714844 243.371094 431.234375 242.308594 C 430.75 241.246094 430.226562 240.203125 429.65625 239.1875 C 429.085938 238.167969 428.476562 237.175781 427.824219 236.207031 C 427.167969 235.238281 426.476562 234.300781 425.746094 233.390625 C 425.011719 232.480469 424.246094 231.605469 423.4375 230.761719 C 422.632812 229.914062 421.792969 229.105469 420.917969 228.332031 C 420.046875 227.554688 419.140625 226.820312 418.207031 226.121094 C 417.269531 225.421875 416.308594 224.765625 415.316406 224.148438 C 414.324219 223.53125 413.308594 222.957031 412.269531 222.421875 C 411.230469 221.890625 410.171875 221.402344 409.089844 220.960938 C 408.011719 220.515625 406.914062 220.117188 405.800781 219.765625 C 404.6875 219.414062 403.558594 219.113281 402.421875 218.855469 C 393.878906 217.632812 385.296875 217.082031 376.667969 217.199219 C 374.566406 217.085938 372.457031 216.9375 370.027344 216.785156 L 370.027344 210.691406 C 370.027344 191.339844 370.09375 172.0625 370.027344 152.75 C 370.019531 150.640625 369.964844 148.535156 369.871094 146.429688 C 369.773438 144.320312 369.636719 142.21875 369.453125 140.117188 C 369.269531 138.015625 369.042969 135.917969 368.773438 133.828125 C 368.503906 131.738281 368.191406 129.652344 367.835938 127.574219 C 367.476562 125.496094 367.078125 123.425781 366.636719 121.363281 C 366.195312 119.300781 365.710938 117.246094 365.183594 115.207031 C 364.65625 113.164062 364.089844 111.132812 363.476562 109.113281 C 362.867188 107.097656 362.214844 105.089844 361.519531 103.101562 C 360.824219 101.109375 360.089844 99.132812 359.316406 97.171875 C 358.539062 95.210938 357.722656 93.265625 356.867188 91.339844 C 356.011719 89.410156 355.113281 87.503906 354.179688 85.613281 C 353.242188 83.722656 352.269531 81.851562 351.253906 80 C 350.242188 78.152344 349.191406 76.324219 348.101562 74.515625 C 347.015625 72.710938 345.890625 70.925781 344.726562 69.167969 C 343.5625 67.40625 342.367188 65.671875 341.132812 63.960938 C 339.898438 62.25 338.628906 60.566406 337.324219 58.910156 C 336.019531 57.25 334.679688 55.621094 333.308594 54.015625 C 331.9375 52.414062 330.535156 50.839844 329.097656 49.296875 C 327.660156 47.753906 326.191406 46.238281 324.691406 44.753906 C 323.191406 43.269531 321.664062 41.816406 320.101562 40.398438 C 318.542969 38.976562 316.953125 37.589844 315.335938 36.234375 C 313.71875 34.878906 312.074219 33.558594 310.402344 32.273438 C 308.730469 30.984375 307.035156 29.734375 305.308594 28.515625 C 303.585938 27.300781 301.835938 26.121094 300.066406 24.976562 C 298.292969 23.832031 296.496094 22.722656 294.679688 21.652344 C 292.859375 20.585938 291.019531 19.550781 289.160156 18.558594 C 287.296875 17.5625 285.414062 16.609375 283.515625 15.691406 C 281.613281 14.777344 279.695312 13.902344 277.757812 13.0625 C 275.820312 12.226562 273.867188 11.429688 271.898438 10.675781 C 269.925781 9.917969 267.941406 9.203125 265.941406 8.53125 C 263.941406 7.855469 261.929688 7.222656 259.902344 6.632812 C 257.878906 6.042969 255.839844 5.492188 253.792969 4.988281 C 245.804688 3.023438 237.625 1.785156 229.53125 0.21875 Z M 218.28125 303.988281 C 219.433594 304 220.582031 304.058594 221.730469 304.160156 C 222.875 304.261719 224.019531 304.410156 225.152344 304.601562 C 226.289062 304.796875 227.414062 305.03125 228.53125 305.3125 C 229.648438 305.59375 230.753906 305.917969 231.84375 306.285156 C 232.9375 306.652344 234.011719 307.0625 235.070312 307.511719 C 236.132812 307.964844 237.171875 308.457031 238.191406 308.992188 C 239.210938 309.523438 240.210938 310.097656 241.1875 310.707031 C 242.164062 311.320312 243.113281 311.96875 244.039062 312.65625 C 244.960938 313.34375 245.859375 314.0625 246.726562 314.820312 C 247.59375 315.578125 248.429688 316.367188 249.238281 317.1875 C 250.042969 318.011719 250.816406 318.863281 251.554688 319.746094 C 252.292969 320.628906 252.996094 321.539062 253.664062 322.476562 C 254.332031 323.414062 254.960938 324.378906 255.554688 325.367188 C 256.144531 326.351562 256.695312 327.363281 257.210938 328.394531 C 257.722656 329.425781 258.191406 330.472656 258.621094 331.542969 C 259.050781 332.609375 259.441406 333.691406 259.785156 334.789062 C 260.105469 335.875 260.386719 336.96875 260.621094 338.074219 C 260.855469 339.179688 261.050781 340.292969 261.199219 341.414062 C 261.34375 342.535156 261.449219 343.664062 261.507812 344.792969 C 261.570312 345.921875 261.582031 347.050781 261.554688 348.179688 C 261.523438 349.3125 261.449219 350.4375 261.332031 351.5625 C 261.214844 352.6875 261.050781 353.804688 260.847656 354.917969 C 260.640625 356.03125 260.390625 357.132812 260.097656 358.226562 C 259.804688 359.316406 259.46875 360.394531 259.089844 361.460938 C 258.710938 362.527344 258.292969 363.578125 257.832031 364.609375 C 257.371094 365.644531 256.871094 366.65625 256.332031 367.648438 C 255.789062 368.644531 255.210938 369.613281 254.59375 370.5625 C 253.976562 371.511719 253.324219 372.433594 252.636719 373.328125 C 251.945312 374.226562 251.222656 375.09375 250.464844 375.933594 C 249.707031 376.773438 248.917969 377.582031 248.09375 378.359375 C 247.273438 379.136719 246.421875 379.882812 245.542969 380.59375 C 244.664062 381.304688 243.757812 381.980469 242.824219 382.621094 C 242.023438 383.253906 241.378906 384.019531 240.890625 384.917969 C 240.402344 385.8125 240.105469 386.769531 240.003906 387.785156 C 239.707031 395.523438 240.003906 403.339844 239.851562 411.128906 C 239.84375 411.84375 239.804688 412.558594 239.730469 413.273438 C 239.65625 413.984375 239.550781 414.695312 239.410156 415.398438 C 239.273438 416.101562 239.101562 416.796875 238.898438 417.484375 C 238.691406 418.171875 238.457031 418.847656 238.191406 419.511719 C 237.925781 420.175781 237.628906 420.828125 237.300781 421.46875 C 236.976562 422.105469 236.621094 422.726562 236.234375 423.332031 C 235.851562 423.9375 235.441406 424.523438 235.003906 425.089844 C 234.5625 425.65625 234.101562 426.203125 233.609375 426.726562 C 233.121094 427.25 232.609375 427.753906 232.074219 428.230469 C 231.539062 428.707031 230.980469 429.15625 230.402344 429.582031 C 229.828125 430.007812 229.230469 430.40625 228.617188 430.773438 C 228.003906 431.144531 227.371094 431.488281 226.726562 431.796875 C 226.082031 432.109375 225.421875 432.390625 224.75 432.640625 C 224.078125 432.894531 223.398438 433.113281 222.703125 433.300781 C 222.011719 433.488281 221.3125 433.644531 220.605469 433.765625 C 219.898438 433.890625 219.1875 433.980469 218.472656 434.039062 C 217.75 433.992188 217.027344 433.914062 216.308594 433.804688 C 215.589844 433.691406 214.878906 433.546875 214.175781 433.367188 C 213.472656 433.1875 212.777344 432.976562 212.09375 432.730469 C 211.410156 432.488281 210.738281 432.210938 210.078125 431.90625 C 209.421875 431.597656 208.777344 431.261719 208.152344 430.890625 C 207.523438 430.523438 206.917969 430.128906 206.328125 429.703125 C 205.738281 429.277344 205.171875 428.828125 204.625 428.347656 C 204.078125 427.871094 203.554688 427.367188 203.054688 426.839844 C 202.554688 426.3125 202.082031 425.765625 201.632812 425.191406 C 201.1875 424.621094 200.765625 424.027344 200.375 423.417969 C 199.980469 422.804688 199.621094 422.179688 199.285156 421.53125 C 198.953125 420.886719 198.652344 420.226562 198.378906 419.554688 C 198.109375 418.878906 197.871094 418.195312 197.664062 417.5 C 197.457031 416.804688 197.285156 416.097656 197.144531 415.386719 C 197.003906 414.675781 196.898438 413.957031 196.824219 413.234375 C 196.753906 412.511719 196.714844 411.789062 196.710938 411.0625 C 196.59375 403.320312 196.828125 395.484375 196.566406 387.71875 C 196.492188 386.777344 196.242188 385.886719 195.8125 385.050781 C 195.382812 384.210938 194.808594 383.488281 194.085938 382.878906 C 193.125 382.242188 192.191406 381.570312 191.285156 380.859375 C 190.378906 380.144531 189.503906 379.398438 188.65625 378.617188 C 187.8125 377.832031 187 377.019531 186.21875 376.171875 C 185.4375 375.324219 184.695312 374.445312 183.984375 373.535156 C 183.277344 372.628906 182.605469 371.691406 181.972656 370.730469 C 181.335938 369.769531 180.742188 368.78125 180.1875 367.773438 C 179.636719 366.761719 179.121094 365.730469 178.652344 364.679688 C 178.179688 363.628906 177.753906 362.558594 177.367188 361.472656 C 176.984375 360.386719 176.644531 359.289062 176.347656 358.175781 C 176.054688 357.0625 175.800781 355.9375 175.597656 354.804688 C 175.390625 353.671875 175.234375 352.53125 175.121094 351.386719 C 175.007812 350.238281 174.941406 349.089844 174.921875 347.9375 C 174.898438 346.785156 174.925781 345.636719 175 344.488281 C 175.070312 343.335938 175.191406 342.191406 175.355469 341.050781 C 175.519531 339.914062 175.730469 338.78125 175.988281 337.65625 C 176.246094 336.535156 176.546875 335.425781 176.890625 334.324219 C 177.605469 332.152344 178.484375 330.050781 179.523438 328.015625 C 180.5625 325.980469 181.753906 324.039062 183.097656 322.1875 C 184.441406 320.339844 185.917969 318.601562 187.53125 316.984375 C 189.144531 315.363281 190.875 313.875 192.71875 312.523438 C 194.5625 311.171875 196.5 309.972656 198.53125 308.921875 C 200.5625 307.871094 202.660156 306.984375 204.832031 306.257812 C 207 305.535156 209.210938 304.980469 211.46875 304.601562 C 213.722656 304.21875 215.992188 304.015625 218.28125 303.988281 Z M 218.28125 303.988281 " fill-opacity="1" fill-rule="nonzero"/></g></g></g></g><g clip-path="url(#172986a37e)"><path fill="#ffffff" d="M 584.410156 539.445312 L 677.878906 539.445312 L 677.878906 567.070312 L 584.410156 567.070312 Z M 584.410156 539.445312 " fill-opacity="1" fill-rule="nonzero"/></g><g clip-path="url(#7177945fc7)"><path fill="#ffffff" d="M 677.878906 567.683594 L 584.410156 567.683594 C 584.242188 567.683594 584.097656 567.621094 583.980469 567.503906 C 583.859375 567.382812 583.800781 567.238281 583.800781 567.070312 L 583.800781 539.445312 C 583.800781 539.277344 583.859375 539.132812 583.980469 539.011719 C 584.097656 538.894531 584.242188 538.832031 584.410156 538.832031 L 677.878906 538.832031 C 678.050781 538.832031 678.195312 538.894531 678.3125 539.011719 C 678.433594 539.132812 678.492188 539.277344 678.492188 539.445312 L 678.492188 567.070312 C 678.492188 567.238281 678.433594 567.382812 678.3125 567.503906 C 678.195312 567.621094 678.050781 567.683594 677.878906 567.683594 Z M 585.023438 566.460938 L 677.269531 566.460938 L 677.269531 540.054688 L 585.023438 540.054688 Z M 585.023438 566.460938 " fill-opacity="1" fill-rule="nonzero"/></g><g clip-path="url(#6a1cb50f91)"><path fill="#ffffff" d="M 823.34375 539.445312 L 916.8125 539.445312 L 916.8125 567.070312 L 823.34375 567.070312 Z M 823.34375 539.445312 " fill-opacity="1" fill-rule="nonzero"/></g><g clip-path="url(#772ca68be9)"><path fill="#ffffff" d="M 916.8125 567.683594 L 823.34375 567.683594 C 823.175781 567.683594 823.03125 567.621094 822.914062 567.503906 C 822.792969 567.382812 822.734375 567.238281 822.734375 567.070312 L 822.734375 539.445312 C 822.734375 539.277344 822.792969 539.132812 822.914062 539.011719 C 823.03125 538.894531 823.175781 538.832031 823.34375 538.832031 L 916.8125 538.832031 C 916.984375 538.832031 917.125 538.894531 917.246094 539.011719 C 917.367188 539.132812 917.425781 539.277344 917.425781 539.445312 L 917.425781 567.070312 C 917.425781 567.238281 917.367188 567.382812 917.246094 567.503906 C 917.125 567.621094 916.984375 567.683594 916.8125 567.683594 Z M 823.957031 566.460938 L 916.203125 566.460938 L 916.203125 540.054688 L 823.957031 540.054688 Z M 823.957031 566.460938 " fill-opacity="1" fill-rule="nonzero"/></g><path fill="#000000" d="M 708.253906 861.097656 L 708.253906 578.613281 L 791.746094 578.613281 L 791.746094 861.097656 Z M 708.253906 861.097656 " fill-opacity="1" fill-rule="nonzero"/><g clip-path="url(#861ce686c0)"><path fill="#000000" d="M 793.59375 578.613281 L 793.59375 861.097656 C 793.59375 861.34375 793.546875 861.578125 793.453125 861.804688 C 793.359375 862.03125 793.222656 862.230469 793.050781 862.40625 C 792.878906 862.578125 792.679688 862.710938 792.453125 862.804688 C 792.226562 862.898438 791.988281 862.945312 791.746094 862.945312 L 708.253906 862.945312 C 708.007812 862.945312 707.773438 862.898438 707.546875 862.804688 C 707.320312 862.710938 707.121094 862.578125 706.945312 862.40625 C 706.773438 862.230469 706.640625 862.03125 706.546875 861.804688 C 706.453125 861.578125 706.40625 861.34375 706.40625 861.097656 L 706.40625 578.613281 C 706.40625 578.367188 706.453125 578.132812 706.546875 577.90625 C 706.640625 577.679688 706.773438 577.480469 706.945312 577.304688 C 707.121094 577.132812 707.320312 577 707.546875 576.90625 C 707.773438 576.8125 708.007812 576.765625 708.253906 576.765625 L 791.746094 576.765625 C 791.988281 576.765625 792.226562 576.8125 792.453125 576.90625 C 792.679688 577 792.878906 577.132812 793.050781 577.304688 C 793.222656 577.480469 793.359375 577.679688 793.453125 577.90625 C 793.546875 578.132812 793.59375 578.367188 793.59375 578.613281 Z M 789.898438 859.25 L 789.898438 580.460938 L 710.101562 580.460938 L 710.101562 859.25 Z M 789.898438 859.25 " fill-opacity="1" fill-rule="nonzero"/></g></g></g></svg>